<?xml version="1.0" standalone="no"?><!DOCTYPE svg PUBLIC "-//W3C//DTD SVG 1.1//EN" "http://www.w3.org/Graphics/SVG/1.1/DTD/svg11.dtd"><svg t="1551332489556" class="icon" style="" viewBox="0 0 1024 1024" version="1.1" xmlns="http://www.w3.org/2000/svg" p-id="2541" xmlns:xlink="http://www.w3.org/1999/xlink" width="36" height="36"><defs><style type="text/css"></style></defs><path d="M 778.24 447.147 c 13.6533 13.6533 34.1333 13.6533 47.7867 0 l 64.8533 -64.8533 c 13.6533 -13.6533 13.6533 -34.1333 0 -47.7867 L 727.04 170.667 c -3.41333 -3.41333 -6.82667 -3.41333 -10.24 -3.41333 l -105.813 -13.6533 c -6.82667 0 -10.24 0 -13.6533 3.41333 l -30.72 30.72 c -13.6533 13.6533 -13.6533 34.1333 0 47.7867 l 78.5067 78.5067 l -133.12 116.053 l -34.1333 -27.3067 c 23.8933 -61.44 17.0667 -136.533 -37.5467 -191.147 c -54.6133 -54.6133 -129.707 -68.2667 -194.56 -44.3733 c -3.41333 3.41333 -6.82667 13.6533 0 17.0667 l 102.4 102.4 c 6.82667 6.82667 6.82667 17.0667 0 23.8933 l -68.2667 68.2667 c -6.82667 6.82667 -17.0667 6.82667 -23.8933 0 l -102.4 -102.4 c -3.41333 -6.82667 -13.6533 -3.41333 -17.0667 3.41333 c -23.8933 64.8533 -6.82667 139.947 44.3733 194.56 c 54.6133 54.6133 126.293 61.44 191.147 37.5467 l 20.48 23.8933 l -167.253 143.36 c -51.2 44.3733 -51.2 119.467 -6.82667 163.84 c 47.7867 47.7867 122.88 44.3733 163.84 -6.82667 l 129.707 -150.187 l 109.227 133.12 c 44.3733 54.6133 122.88 58.0267 170.667 10.24 s 44.3733 -126.293 -10.24 -170.667 l -143.36 -119.467 l 102.4 -119.467 l 37.5467 27.3067 Z m -47.7867 283.307 c 17.0667 0 30.72 13.6533 30.72 30.72 s -13.6533 30.72 -30.72 30.72 s -30.72 -13.6533 -30.72 -30.72 s 13.6533 -30.72 30.72 -30.72 Z" p-id="2542" fill="#67B5FC"></path></svg>